<mxfile host="app.diagrams.net" modified="2023-10-04T18:56:57.793Z" agent="Mozilla/5.0 (X11; Linux x86_64; rv:102.0) Gecko/20100101 Firefox/102.0" version="21.8.2" etag="2LgtmrPa0XaVpv-1Js1g" type="github">
  <diagram name="PÃ¡gina-1" id="dDtDJhPy7UqL8HCX-DSI">
    <mxGraphModel>
      <root>
        <mxCell id="0" />
        <mxCell id="1" parent="0" />
      </root>
    </mxGraphModel>
  </diagram>
</mxfile>
